# xmcd
#
# Track frame offsets: 
#        150
#        14479
#        28103
#        42060
#        55139
#        68939
#        81653
#        95247
#        110305
#        122855
#        137089
#        150843
#        160792
#        167014
#        177167
#
# Disc length: 2504 seconds
#
# Revision: 0
# Processed by: cddbd v1.5.2PL0 Copyright (c) Steve Scherf et al.
# Submitted via: ExactAudioCopy v0.99pb5
#
DISCID=c409c60f
DTITLE=Elza Soares - Lição de Vida - Remastered and Expanded
DYEAR=1976
DGENRE=Samba
TTITLE0=Malandro
TTITLE1=Cipriano
TTITLE2=Lição de Vida
TTITLE3=Pinta e Borda
TTITLE4=Rainha dos Sete Mares
TTITLE5=A Rosa
TTITLE6=Curumbandê
TTITLE7=Nó na Tristeza
TTITLE8=Deus e Viola
TTITLE9=Estou com Raiva de Você
TTITLE10=Samba, Minha Raiz
TTITLE11=Medley: A) Sal e Pimenta B) Mulata Assanhada C) Beija-me
TTITLE12=Vem Chegando a Madrugada ao vivo
TTITLE13=Quando Vim de Minas ao vivo
TTITLE14=Sei Lá, Mangueira ao vivo
EXTD=
EXTT0=
EXTT1=
EXTT2=
EXTT3=
EXTT4=
EXTT5=
EXTT6=
EXTT7=
EXTT8=
EXTT9=
EXTT10=
EXTT11=
EXTT12=
EXTT13=
EXTT14=
PLAYORDER=
